<svg width="70" height="70" viewBox="0 0 70 70" fill="none" xmlns="http://www.w3.org/2000/svg">
<g clip-path="url(#clip0)">
<path d="M29.8041 21.6641C22.4496 21.6641 16.4666 27.6471 16.4666 35.0011C16.4666 42.3556 22.4496 48.3386 29.8041 48.3386C37.1581 48.3386 43.1411 42.3556 43.1411 35.0011C43.1411 27.6471 37.1581 21.6641 29.8041 21.6641ZM37.7226 32.4894L28.1678 42.0442C27.7667 42.4453 27.2406 42.6461 26.7151 42.6461C26.1896 42.6461 25.6641 42.4458 25.263 42.0442L21.6117 38.3929C20.8095 37.5913 20.8095 36.2908 21.6117 35.4887C22.4133 34.6865 23.7137 34.6865 24.5159 35.4887L26.7151 37.6879L34.8184 29.5852C35.62 28.783 36.9204 28.783 37.7226 29.5852C38.5247 30.3868 38.5247 31.6873 37.7226 32.4894Z" fill="#13BE37"/>
<path d="M59.5392 18.9926L59.5371 18.9382C59.5066 18.2658 59.4864 17.5544 59.4741 16.763C59.4169 12.9033 56.3488 9.71075 52.4886 9.49499C44.4404 9.04585 38.2144 6.4215 32.8946 1.23635L32.8492 1.19309C31.1141 -0.39786 28.4967 -0.39786 26.761 1.19309L26.7156 1.23635C21.3959 6.4215 15.1698 9.04585 7.12161 9.49553C3.26199 9.71075 0.193303 12.9033 0.136159 16.7635C0.12441 17.5496 0.103582 18.261 0.0731408 18.9382L0.0699365 19.0647C-0.0865419 27.2716 -0.280938 37.4854 3.13595 46.7561C5.01476 51.8542 7.86021 56.2858 11.5927 59.9286C15.8438 64.0771 21.4119 67.3707 28.1421 69.7173C28.361 69.7937 28.5885 69.8556 28.8203 69.9021C29.1472 69.9672 29.4761 69.9998 29.8051 69.9998C30.1341 69.9998 30.4636 69.9672 30.7899 69.9021C31.0217 69.8556 31.2508 69.7931 31.4708 69.7162C38.193 67.3653 43.7552 64.0702 48.0025 59.9222C51.7335 56.2783 54.5789 51.8456 56.4593 46.7465C59.889 37.448 59.6952 27.215 59.5392 18.9926ZM29.804 52.4459C20.1846 52.4459 12.3591 44.6204 12.3591 35.001C12.3591 25.3816 20.1846 17.556 29.804 17.556C39.4229 17.556 47.249 25.3816 47.249 35.001C47.249 44.6204 39.4229 52.4459 29.804 52.4459Z" fill="#61CD78"/>
</g>
<defs>
<clipPath id="clip0">
<rect width="70" height="70" fill="white"/>
</clipPath>
</defs>
</svg>
