<svg width="27" height="43" viewBox="0 0 27 43" fill="none" xmlns="http://www.w3.org/2000/svg">
<path d="M26 17.3636C26 30.0909 13.5 41 13.5 41C13.5 41 1 30.0909 1 17.3636C1 13.0237 2.31696 8.86158 4.66116 5.7928C7.00537 2.72402 10.1848 1 13.5 1C16.8152 1 19.9946 2.72402 22.3388 5.7928C24.683 8.86158 26 13.0237 26 17.3636Z" fill="white" stroke="#13BE37" stroke-width="2" stroke-linecap="round" stroke-linejoin="round"/>
<path d="M13.5 22C17.0899 22 20 19.0899 20 15.5C20 11.9101 17.0899 9 13.5 9C9.91015 9 7 11.9101 7 15.5C7 19.0899 9.91015 22 13.5 22Z" fill="#13BE37"/>
</svg>
