<svg width="74" height="70" viewBox="0 0 74 70" fill="none" xmlns="http://www.w3.org/2000/svg">
<g clip-path="url(#clip0)">
<path d="M73.1506 13.237L61.49 12.1555L56.8581 1.39992C56.5339 0.646804 55.466 0.646804 55.1418 1.39992L50.5099 12.1556L38.8494 13.237C38.0329 13.3127 37.703 14.3283 38.319 14.8694L47.1169 22.5983L44.5422 34.0223C44.3619 34.8222 45.2257 35.4498 45.9308 35.0312L56 29.0522L66.0692 35.0312C66.7742 35.4498 67.6382 34.8222 67.4579 34.0223L64.8831 22.5983L73.681 14.8694C74.297 14.3283 73.967 13.3127 73.1506 13.237Z" fill="#FFDC64"/>
</g>
<g clip-path="url(#clip1)">
<path d="M39.4337 34.8247L31.66 34.1037L28.5721 26.9333C28.3559 26.4312 27.644 26.4312 27.4278 26.9333L24.34 34.1038L16.5663 34.8247C16.022 34.8752 15.802 35.5522 16.2126 35.913L22.0779 41.0655L20.3614 48.6816C20.2413 49.2148 20.8172 49.6332 21.2872 49.3542L28 45.3682L34.7128 49.3542C35.1828 49.6332 35.7588 49.2148 35.6386 48.6816L33.9221 41.0655L39.7873 35.913C40.198 35.5522 39.978 34.8752 39.4337 34.8247Z" fill="#FFDC64"/>
</g>
<g clip-path="url(#clip2)">
<path d="M19.5281 57.3539L13.05 56.7531L10.4767 50.7778C10.2966 50.3594 9.70335 50.3594 9.5232 50.7778L6.94996 56.7532L0.471885 57.3539C0.0182922 57.396 -0.165028 57.9602 0.177198 58.2608L5.06492 62.5546L3.63454 68.9013C3.53438 69.3457 4.0143 69.6944 4.40598 69.4618L9.99999 66.1402L15.594 69.4618C15.9857 69.6944 16.4656 69.3457 16.3655 68.9013L14.9351 62.5546L19.8228 58.2608C20.165 57.9602 19.9817 57.396 19.5281 57.3539Z" fill="#FFDC64"/>
</g>
<defs>
<clipPath id="clip0">
<rect width="36" height="36" fill="white" transform="translate(38)"/>
</clipPath>
<clipPath id="clip1">
<rect width="24" height="24" fill="white" transform="translate(16 26)"/>
</clipPath>
<clipPath id="clip2">
<rect width="20" height="20" fill="white" transform="translate(0 50)"/>
</clipPath>
</defs>
</svg>
