<svg width="70" height="70" viewBox="0 0 70 70" fill="none" xmlns="http://www.w3.org/2000/svg">
<path d="M40.4688 14.2188C40.4688 13.6161 39.9777 13.125 39.375 13.125H39.2339C38.6608 13.125 38.1806 13.5734 38.1424 14.1466L38.0647 15.3125H39.375C39.9777 15.3125 40.4688 14.8214 40.4688 14.2188Z" fill="#FFDC64"/>
<path d="M30.7661 13.125H30.625C30.0223 13.125 29.5312 13.6161 29.5312 14.2188C29.5312 14.8214 30.0223 15.3125 30.625 15.3125H31.9353L31.8577 14.1466C31.8194 13.5734 31.3392 13.125 30.7661 13.125Z" fill="#FFDC64"/>
<path d="M30.625 30.625C30.625 32.4341 32.0972 33.9062 33.9062 33.9062H36.0938C37.9028 33.9062 39.375 32.4341 39.375 30.625V29.5312H30.625V30.625Z" fill="#FFDC64"/>
<path d="M28.0777 22.6756C29.5532 23.882 30.4468 25.562 30.5944 27.3437H32.7371L32.0808 17.5H30.625C28.816 17.5 27.3438 16.0278 27.3438 14.2187C27.3438 12.4097 28.816 10.9375 30.625 10.9375H30.7661C32.4866 10.9375 33.9249 12.2828 34.0397 14L34.1272 15.3125H35.8729L35.9604 14.0011C36.0752 12.2828 37.5135 10.9375 39.234 10.9375H39.375C41.1841 10.9375 42.6563 12.4097 42.6563 14.2187C42.6563 16.0278 41.1841 17.5 39.375 17.5H37.9193L37.263 27.3437H39.4046C39.5479 25.5533 40.425 23.8864 41.8765 22.7128C44.4566 20.6248 45.9375 17.5284 45.9375 14.2187C45.9375 11.1103 44.6075 8.13859 42.2899 6.06375C40.2577 4.24593 37.7115 3.28015 35.0143 3.28015C34.5921 3.28015 34.1655 3.30421 33.7368 3.35124C28.9429 3.88718 24.9321 7.72296 24.1993 12.4709C23.5944 16.38 25.0447 20.195 28.0777 22.6756Z" fill="#FFDC64"/>
<path d="M35.7274 17.5H34.2727L34.929 27.3438H35.0711L35.7274 17.5Z" fill="#FFDC64"/>
<path d="M12.0312 43.75C12.0312 44.3537 12.5223 44.8438 13.125 44.8438H15.3125C15.9152 44.8438 16.4062 44.3537 16.4062 43.75V42.6562H12.0312V43.75Z" fill="#FFDC64"/>
<path d="M10.1018 37.0748C11.236 37.8 11.9338 39.0567 12.0147 40.4687H13.1249V32.5095C12.4741 32.1311 12.0311 31.4333 12.0311 30.625C12.0311 29.4164 13.01 28.4375 14.2186 28.4375C15.4272 28.4375 16.4061 29.4164 16.4061 30.625C16.4061 31.4322 15.9632 32.13 15.3124 32.5095V40.4687H16.4204C16.4915 39.0687 17.1969 37.8066 18.3541 37.065C20.558 35.6464 21.8749 33.2391 21.8749 30.625C21.8749 28.4473 20.9419 26.3648 19.3166 24.9123C17.8947 23.6425 16.1152 22.9688 14.2285 22.9688C13.9288 22.9688 13.6258 22.9863 13.3218 23.0202C9.88083 23.4095 7.06552 26.1833 6.62802 29.6144C6.2463 32.6036 7.57739 35.4627 10.1018 37.0748Z" fill="#FFDC64"/>
<path d="M51.6643 37.0748C52.7985 37.8 53.4963 39.0567 53.5772 40.4687H54.6874V32.5095C54.0366 32.1311 53.5936 31.4333 53.5936 30.625C53.5936 29.4164 54.5725 28.4375 55.7811 28.4375C56.9897 28.4375 57.9686 29.4164 57.9686 30.625C57.9686 31.4322 57.5257 32.13 56.8749 32.5095V40.4687H57.9829C58.054 39.0687 58.7594 37.8066 59.9166 37.065C62.1205 35.6464 63.4374 33.2391 63.4374 30.625C63.4374 28.4473 62.5044 26.3648 60.8791 24.9123C59.4572 23.6425 57.6777 22.9688 55.791 22.9688C55.4913 22.9688 55.1883 22.9863 54.8843 23.0202C51.4433 23.4095 48.628 26.1833 48.1905 29.6144C47.8088 32.6036 49.1399 35.4627 51.6643 37.0748Z" fill="#FFDC64"/>
<path d="M53.5938 43.75C53.5938 44.3537 54.0848 44.8438 54.6875 44.8438H56.875C57.4777 44.8438 57.9688 44.3537 57.9688 43.75V42.6562H53.5938V43.75Z" fill="#FFDC64"/>
<path d="M66.7188 66.7188H68.9062V68.9062H66.7188V66.7188Z" fill="#13BE37"/>
<path d="M1.09375 66.7188H3.28125V68.9062H1.09375V66.7188Z" fill="#13BE37"/>
<path d="M61.25 55.7812C64.8747 55.7812 67.8125 52.8434 67.8125 49.2188H62.3438C60.06 49.2188 58.0508 50.3869 56.875 52.1566V47.0312H54.6875V59.8128C53.5117 58.0431 51.5025 56.875 49.2188 56.875H43.75C43.75 60.4997 46.6878 63.4375 50.3125 63.4375H54.6875V66.7188H36.0938V64.5312V63.4375V55.7812H39.375C42.3905 55.7812 44.8438 53.328 44.8438 50.3125V49.2188H39.375C38.1391 49.2188 37.0103 49.6464 36.0938 50.3409V47.0312V45.9375H39.375C42.9997 45.9375 45.9375 42.9997 45.9375 39.375H41.5625C39.2788 39.375 37.2695 40.5431 36.0938 42.3128V36.0938H33.9062V41.5909C32.9897 40.8964 31.8609 40.4688 30.625 40.4688H25.1562V41.5625C25.1562 44.578 27.6095 47.0312 30.625 47.0312H33.9062V54.6875V55.7812V59.0909C32.9897 58.3964 31.8609 57.9688 30.625 57.9688H25.1562V59.0625C25.1562 62.078 27.6095 64.5312 30.625 64.5312H33.9062V66.7188H15.3125V55.7812H19.6875C23.3122 55.7812 26.25 52.8434 26.25 49.2188H20.7812C18.4975 49.2188 16.4883 50.3869 15.3125 52.1566V47.0312H13.125V59.8128C11.9492 58.0431 9.94 56.875 7.65625 56.875H2.1875C2.1875 60.4997 5.12531 63.4375 8.75 63.4375H13.125V66.7188H5.46875V68.9062H64.5312V66.7188H56.875V55.7812H61.25Z" fill="#13BE37"/>
</svg>
