<svg width="552" height="588" viewBox="0 0 552 588" fill="none" xmlns="http://www.w3.org/2000/svg">
<g opacity="0.7">
<path fill-rule="evenodd" clip-rule="evenodd" d="M469.16 22.0977L467.257 23.0506L459.643 24.0035L458.691 24.9564L455.836 25.9093H454.884L453.933 26.8623H452.029L450.126 28.7681H449.174H448.222H447.271L445.367 29.721L443.464 30.674L442.512 29.721L441.56 30.674H436.802L433.946 31.6269L430.14 32.5798H428.236L426.333 33.5327H424.429L421.574 34.4856L418.719 35.4386L417.767 36.3915V37.3444L415.864 38.2973L414.912 37.3444L413.96 36.3915L409.202 33.5327H408.25L404.443 35.4386V34.4856H403.491V35.4386H402.54V34.4856L401.588 35.4386L402.54 36.3915H403.491L404.443 37.3444H405.395L406.346 38.2973H407.298V39.2503H406.346H405.395H404.443V38.2973L402.54 37.3444V36.3915H400.636L399.684 38.2973H400.636L401.588 39.2503H402.54V40.2032L401.588 41.1561L400.636 40.2032V41.1561L401.588 42.109H402.54H403.491H404.443H405.395H406.346V43.0619H404.443H403.491L401.588 42.109V43.0619L400.636 42.109V43.0619L401.588 44.0149H402.54H403.491H404.443H405.395H406.346L407.298 43.0619V44.0149V44.9678H406.346L407.298 45.9207L408.25 44.9678H409.202V45.9207L408.25 46.8736H406.346V47.8266L407.298 48.7795L408.25 47.8266H409.202L408.25 48.7795H407.298H406.346L407.298 49.7324V50.6853H406.346V49.7324L405.395 48.7795V47.8266H404.443L405.395 46.8736H404.443L403.491 45.9207V46.8736L402.54 48.7795V47.8266V46.8736L400.636 45.9207L399.684 46.8736V47.8266L401.588 49.7324V50.6853H400.636V49.7324L399.684 50.6853V49.7324L398.733 48.7795V47.8266V46.8736V44.9678L397.781 44.0149V43.0619L398.733 42.109H397.781V41.1561V40.2032L396.829 39.2503L397.781 37.3444V36.3915V35.4386L399.684 34.4856L394.926 36.3915H393.974L392.071 35.4386H389.215V36.3915H388.264H387.312L386.36 35.4386L382.553 36.3915H380.65H379.698L378.746 37.3444L374.94 38.2973H373.988H373.036L369.229 40.2032H367.326H366.374H365.422H364.471V39.2503L363.519 38.2973V40.2032L361.615 41.1561L359.712 42.109L358.76 43.0619L356.857 44.0149L355.905 44.9678L354.002 45.9207H352.098L349.243 47.8266L345.436 49.7324L343.533 50.6853L338.774 53.5441H335.919L334.967 54.497L333.064 55.4499H332.112L331.16 56.4029L329.257 57.3558L327.353 58.3087L326.402 59.2616L324.498 61.1675L323.546 63.0733L322.595 64.0262V64.9792H321.643V65.9321L319.74 66.885L318.788 67.8379H317.836L315.933 69.7438L314.981 70.6967H314.029L313.078 71.6496L312.126 73.5555H311.174L310.222 74.5084L309.271 76.4142L308.319 79.273L307.367 80.2259V81.1788H308.319L307.367 82.1318L306.415 83.0847L305.464 84.0376V84.9905H306.415V86.8964L305.464 88.8022V91.661V93.5668V94.5197L304.512 95.4727V96.4256L302.609 97.3785H301.657L302.609 98.3314L301.657 99.2844V100.237L300.705 101.19H301.657L302.609 102.143L303.56 104.049V105.002V105.955V106.908L304.512 108.814H303.56L304.512 109.766H303.56V108.814V107.861V106.908H302.609V105.955V105.002H301.657H300.705V104.049H299.753L300.705 105.955V106.908L301.657 107.861L302.609 108.814H301.657V109.766V110.719H302.609H303.56V112.625V113.578L304.512 112.625V113.578H303.56V114.531H304.512L305.464 115.484V116.437V117.39V118.343L304.512 119.296V121.202L305.464 124.06V125.966L306.415 126.919V127.237L308.319 125.966L306.415 127.872V127.237L305.464 127.872V128.825V130.731H304.512L303.56 131.684L304.512 132.637L305.464 134.542V135.495V137.401V138.354L304.512 139.307H303.56H302.609L300.705 141.213L299.753 142.166L298.802 143.119L299.753 144.072V145.025V145.978H301.657V146.93H302.609L304.512 148.836L306.415 150.742H307.367H308.319H309.271H311.174V149.789L314.029 150.742H315.933L316.884 151.695L320.691 153.601H322.595V154.554H324.498L325.45 153.601H326.402V152.648L327.353 151.695V150.742L329.257 149.789L331.16 150.742L332.112 149.789L334.015 148.836H334.967L335.919 149.789V151.695H336.871H337.822H339.726H340.678H341.629V152.648H342.581L343.533 151.695V152.648V153.601H342.581L337.822 154.554H336.871V155.507L334.015 160.271L329.257 167.895V168.848L328.305 171.706V181.236V186V187.906V188.859V189.812H329.257L330.209 190.765L331.16 191.718L333.064 194.577L335.919 198.388L336.871 199.341H337.822H347.34H348.291H351.146H358.76H359.712L358.76 200.294V202.2V203.153V204.106L359.712 205.059V206.012L355.905 205.059L356.857 206.012H357.809H358.76V206.965L359.712 207.917V208.87V209.823L360.664 210.776L361.615 211.729V212.682V213.635L362.567 214.588V216.494V218.4V219.353L361.615 222.211L360.664 224.117V225.07V226.023L359.712 227.929V228.882V229.835L358.76 228.882V230.788H357.809V229.835V228.882L360.664 223.164L361.615 221.258V220.305V218.4V213.635L360.664 211.729L355.905 206.965V206.012H354.953H350.195H349.243L345.436 205.059L336.871 202.2H335.919L334.967 200.294H334.015L333.064 201.247L326.402 203.153H325.45L324.498 204.106L316.884 210.776V211.729H315.933H312.126H311.174V212.682L310.222 215.541V214.588L309.271 216.494V217.447V218.4V219.353V220.305L307.367 221.258H306.415L305.464 222.211L304.512 224.117H303.56H302.609V225.07L286.429 235.552L283.574 237.458V238.411H282.622V239.364H281.671H281.096L275.009 243.176L274.057 244.129L270.25 246.987H269.298V247.94L271.202 249.846V251.752V254.611L270.25 255.564H271.202L272.153 257.469H271.202L272.153 258.422L273.105 257.469H274.057L277.864 256.517H278.815H279.767L280.719 257.469H281.671H282.622H284.526L287.381 258.422L289.284 260.328L292.14 261.281L293.091 262.234V263.187H294.043L302.609 270.81L303.56 272.716H304.512L306.415 273.669L308.319 272.716L313.078 270.81H314.029H315.933L316.884 269.857L319.74 268.904H320.691L321.643 265.093L322.595 264.14V261.281H323.546V259.375V258.422V257.469V256.517H322.595V255.564L321.643 253.658L322.595 252.705L325.45 249.846L327.353 250.799L330.209 249.846H331.16L332.112 248.893H331.16L332.112 247.94L333.064 246.987L334.015 246.034L336.871 243.176L344.484 239.364H345.436H346.388L347.34 240.317H348.291L352.098 237.458L353.05 235.552L354.953 233.646L355.905 231.741L356.857 230.788V231.741H357.809V232.693H356.857L357.809 233.646L356.857 234.599L355.905 235.552L353.05 238.411L351.146 240.317L349.243 241.27V242.223H348.291L347.34 243.176H346.388L345.436 244.129V245.081H344.484V246.034H343.533H342.581L340.678 246.987L339.726 247.94H338.774L337.822 248.893L335.919 249.846H334.967L334.015 250.799L333.064 251.752V252.705H332.112H331.16V253.658V254.611H330.209V255.564H329.257V256.517H328.305V257.469L326.402 258.422L325.45 259.375L324.498 260.328V261.281L323.546 263.187V265.093L322.595 266.999V267.952L321.643 269.857L320.691 270.81H316.884H315.933L314.029 272.716L313.078 271.763L312.126 272.716L309.271 273.669H307.367L306.415 274.622H304.512L303.56 273.669L302.609 272.716L301.657 271.763H300.705V270.81L299.753 269.857H298.802H297.85H296.898L295.946 268.904H294.043L293.091 267.952L291.188 266.046V265.093L292.14 264.14H291.188H290.236L289.284 263.187H288.333L287.381 262.234H286.429V261.281L285.478 260.328L284.526 261.281H283.574H282.622H278.815L277.864 262.234H276.912L275.96 263.187H275.009V262.234H274.057L273.105 261.281L272.153 260.328L271.202 258.422H270.25V257.469H268.346H267.395L266.443 255.564H263.588H262.636H261.684L259.781 256.517L258.829 255.564V256.517H257.878V255.564H258.829V254.611L257.878 253.658H256.926L255.974 254.611H255.022H254.071V253.658H255.022V252.705V251.752L253.119 250.799H252.167V251.752H251.215L250.264 250.799H249.312V249.846H250.264H251.215L252.167 248.893L249.312 246.987V246.034L251.215 246.987L252.167 247.94H253.119L254.071 246.987V247.94L255.022 248.893L255.974 247.94V246.987V246.034H256.926L257.878 245.081V243.176L258.829 242.223L259.781 241.27L260.733 240.317H261.684H262.636V239.364L263.588 238.411V237.458L265.491 235.552H264.54H263.588L262.636 234.599V235.552L260.733 234.599V233.646V232.693V231.741L261.684 230.788V229.835H260.733L259.781 230.788L258.829 229.835L260.733 228.882H262.636V227.929L261.684 226.976V226.023V225.07L262.636 224.117L263.588 225.07V224.117L264.54 223.164L265.491 221.258H264.54V219.353H263.588V218.4L262.636 217.447V216.494L261.684 214.588V213.635L259.781 210.776V209.823L258.829 208.87V206.965L257.878 205.059V204.106L256.926 203.153L257.878 202.2L256.926 201.247V200.294V199.341V198.388V196.482V195.529H257.878V194.577H258.829L259.781 193.624H260.733H261.684V194.577L262.636 195.529V194.577L263.588 193.624H264.54H265.491H266.443L267.395 194.577L268.346 195.529H269.298L270.25 196.482V197.435H272.153H273.105H274.057L275.009 196.482L276.912 194.577H277.864H279.767V193.624L280.719 192.671H281.671V191.718L283.574 190.765V189.812L284.526 188.859V186.953V186L285.478 184.094H286.429H287.381H288.333L289.284 183.141H290.236L289.284 182.189H290.236L291.188 181.236L292.14 180.283L291.188 179.33L290.236 178.377V177.424V176.471V175.518V174.565V173.612V172.659H289.284L288.333 171.706L286.429 170.754H283.574H282.622L281.671 169.801H279.767H278.815L277.864 171.706L276.912 172.659V173.612L275.96 172.659H275.009H274.057H273.105L271.202 170.754L270.25 169.801L269.298 168.848L270.25 166.942H269.298L268.346 165.989H267.395L269.298 151.695L267.395 148.836L264.54 143.119V142.166L263.588 141.213L260.733 135.495H259.781H258.829V137.401L256.926 139.307H255.974L254.071 140.26H253.119L252.167 142.166H251.215H250.264H247.409H246.457V143.119H244.553L242.65 142.166L239.795 143.119L238.843 142.166L235.988 140.26H235.036L232.181 138.354L231.229 137.401L230.278 136.448L229.326 134.542V132.637V130.731L230.278 128.825V127.872H229.326V128.825H228.374H227.422V127.872V126.919H225.519H223.615H222.664H221.712L219.809 129.778V130.731V131.684V133.59L218.857 136.448V139.307V143.119L216.953 148.836L216.002 154.554L214.098 160.271V162.177H213.146V164.083L211.243 167.895V169.801L209.34 175.518V176.471V177.424V178.377V179.33V182.189L208.388 186V187.906V189.812L207.436 193.624V195.529V196.482V198.388L206.484 199.341V200.294L205.533 206.965L204.581 215.541L203.629 220.305L202.678 222.211L201.726 224.117L200.774 226.023L199.822 228.882L201.726 227.929H202.678L204.581 226.976L205.533 227.929H204.581V228.882H202.678L201.726 229.835H203.629V230.788L201.726 229.835H200.774V230.788L198.871 229.835V231.741L199.822 233.646L198.871 234.599V236.505L197.919 238.411L196.967 242.223L196.015 245.081L194.112 249.846L190.305 257.469L184.595 269.857L182.691 272.716L181.74 274.622L178.884 279.387L177.933 280.34V281.292L176.029 284.151L175.078 286.057L172.222 289.869L166.512 297.492L163.657 299.398V300.351L161.753 302.257H160.802V303.21V304.163H161.753L160.802 305.116V304.163H159.85L158.898 305.116L157.946 307.021L156.995 307.974L154.14 310.833L152.236 312.739L149.381 316.551L148.429 317.504L146.526 319.409L145.574 320.362V321.315L143.671 324.174L141.767 325.127L139.864 327.033H138.912L137.96 326.08L133.202 325.127L132.25 326.08H131.298H130.346L129.395 327.033V327.986L128.443 328.939L127.491 330.844L128.443 331.797L129.395 332.75V333.703L127.491 335.609L126.54 337.515L124.636 340.374H125.588H126.54L127.491 341.327L128.443 340.374L132.25 339.421H133.202L134.153 341.327H133.202V342.28L131.298 344.185V345.138L130.346 346.091V347.044L131.298 347.997L135.105 353.715V354.667V355.62L134.153 356.573L136.057 355.62L137.009 356.573L137.96 357.526L138.912 358.479V359.432H139.864H140.815H141.767H142.719L141.767 360.385L142.719 361.338H143.671V360.385H144.622H145.574H146.526L147.478 361.338L149.381 364.197H150.333H151.284H152.236V365.15H154.14L155.091 367.055L156.043 368.008H156.995H157.946L156.995 368.961H156.043L156.995 370.867L157.946 371.82L160.802 372.773V373.726H162.705L164.609 374.679H166.512V375.632L170.319 376.585L172.222 378.491H173.174L175.078 379.443L177.933 381.349H178.884L179.836 382.302H181.74V383.255H185.546H186.498L188.402 384.208H189.353H190.305L191.257 385.161H192.209L193.16 386.114H194.112L196.015 385.161H196.967L199.822 384.208H200.774L201.726 383.255H203.629L204.581 381.349L205.533 382.302H206.484L208.388 381.349V382.302V383.255L206.484 384.208L205.533 385.161H204.581L203.629 386.114L202.678 387.067L195.064 388.973H194.112H193.16L190.305 389.926H188.402L185.546 388.973L184.595 388.02H183.643L182.691 387.067H181.74H179.836L178.884 388.02L176.981 388.973L176.029 389.926V390.879L175.078 392.784L174.126 393.737L173.174 394.69L172.222 395.643L170.319 396.596H169.367L168.415 397.549H167.464V396.596H166.512L165.56 397.549H163.657H162.705L161.753 398.502H160.802H159.85L158.898 400.408H157.946V399.455H156.995H156.043H155.091L153.188 398.502H151.284H150.333H149.381L147.478 397.549L144.622 395.643H143.671L140.815 394.69V395.643L138.912 397.549H137.96L138.912 399.455H139.864L140.815 401.361L141.767 403.267H143.671H145.574H146.526H147.478V402.314H148.429V403.267V404.219L147.478 405.172H146.526H145.574H144.622H143.671H142.719L141.767 406.125H140.815L138.912 404.219L135.105 403.267H134.153L132.25 404.219L131.298 405.172H130.346L128.443 406.125L127.491 407.078L126.54 406.125L124.636 407.078L123.684 408.031V409.937H124.636V410.89H125.588H126.54L127.491 411.843L128.443 412.796H129.395V413.749V414.702L130.346 415.655H131.298L132.25 416.607L133.202 417.56V419.466L134.153 420.419H135.105V421.372H136.057H137.009H140.815H141.767H142.719L143.671 422.325H144.622V421.372L146.526 422.325L148.429 423.278L147.478 424.231V425.184V426.137H148.429L152.236 428.043L153.188 428.995V434.713V435.666L154.14 439.478H153.188H152.236H151.284L150.333 438.525H149.381H148.429H147.478L146.526 439.478H145.574L144.622 440.43H143.671H142.719H141.767V439.478H140.815L137.96 437.572H137.009L136.057 434.713H135.105L133.202 431.854V430.901L132.25 429.948L133.202 428.995L132.25 428.043V427.09V426.137H131.298L130.346 425.184L128.443 423.278L127.491 422.325H126.54H125.588L124.636 421.372H123.684L121.781 420.419H120.829L119.878 419.466L118.926 420.419H117.974V421.372L116.071 418.513H117.022L116.071 417.56V416.607H115.119H114.167H113.215L112.264 417.56H111.312H110.36H108.457H107.505H106.553H105.602V416.607L104.65 415.655H102.746L100.843 416.607H99.8913L98.9396 417.56L96.0844 416.607H95.1327L94.181 415.655L93.2292 416.607L91.3258 417.56V418.513L90.3741 419.466V420.419L89.4224 421.372H88.4706L87.5189 422.325H88.4706H89.4224L87.5189 423.278V422.325L85.6155 420.419L84.6637 419.466V418.513L83.712 415.655V414.702H82.7603L81.8086 413.749L79.9051 412.796L78.9534 411.843L78.0017 410.89V409.937V408.031L78.9534 407.078H78.0017H77.0499L76.0982 406.125H73.243H72.2913H71.3396H69.4361V407.078H68.4844H67.5327L66.581 408.031L64.6775 408.984L63.7258 409.937L61.8224 410.89H60.8706L59.9189 411.843L58.9672 412.796L57.0637 413.749L56.112 414.702H55.1603L54.2086 415.655L53.2568 416.607V417.56V418.513V419.466L54.2086 421.372H55.1603L56.112 422.325L57.0637 423.278L58.9672 424.231V425.184H59.9189L60.8706 426.137L61.8224 427.09V428.043L62.7741 428.995V429.948L63.7258 430.901V431.854L64.6775 432.807L65.6292 433.76L67.5327 434.713V435.666H68.4844L69.4361 436.619V437.572H70.3879H72.2913H73.243V436.619V434.713H74.1948V436.619L75.1465 437.572H76.0982H78.0017L78.9534 436.619V435.666H79.9051H81.8086H82.7603L80.8568 434.713L81.8086 433.76L83.712 432.807H84.6637V433.76L87.5189 431.854V430.901V429.948L88.4706 430.901V431.854H89.4224L88.4706 432.807H87.5189L85.6155 433.76L87.5189 434.713H88.4706H89.4224L88.4706 435.666L89.4224 436.619V437.572L88.4706 436.619L87.5189 437.572H86.5672L87.5189 435.666L85.6155 434.713L84.6637 433.76L83.712 435.666L84.6637 436.619L87.5189 438.525L88.4706 439.478V440.43H89.4224V442.336V443.289H90.3741L91.3258 444.242H92.2775V443.289H93.2292L95.1327 444.242H96.0844V445.195L97.9879 446.148V447.101H98.9396L100.843 449.007H101.795H103.698L105.602 448.054H106.553L107.505 447.101H109.409H110.36L111.312 448.054L112.264 447.101L113.215 443.289H114.167V442.336V441.383H115.119V439.478V438.525V437.572V436.619V435.666L117.022 436.619L118.926 435.666H119.878L121.781 433.76L122.733 434.713L123.684 435.666L124.636 436.619V437.572H125.588V438.525H126.54H127.491L128.443 439.478L129.395 440.43H131.298V441.383V443.289L133.202 444.242H134.153L135.105 445.195H136.057L137.96 446.148L139.864 447.101H141.767L142.719 448.054H144.622L147.478 447.101L149.381 446.148H150.333H151.284V447.101H152.236H153.188L155.091 448.054L156.043 450.913V452.818H158.898L160.802 451.866H167.464V452.818L168.415 453.771V456.63L169.367 455.677L172.222 456.63H173.174H174.126H175.078H176.029L176.981 455.677L178.884 454.724H179.836V453.771V452.818L175.078 446.148L174.126 443.289L175.078 442.336H176.029V441.383V440.43V439.478V438.525H175.078L174.126 437.572L175.078 436.619L181.74 433.76H183.643L184.595 432.807L185.546 431.854H186.498H187.45L194.112 430.901L195.064 432.807L193.16 437.572L194.112 443.289L198.871 441.383H199.822H201.726L205.533 442.336L207.436 443.289H208.388V442.336L209.34 443.289L211.243 442.336L210.291 438.525L213.146 437.572H214.098L215.05 434.713L216.953 433.76L217.905 432.807L218.857 430.901L220.76 429.948L221.712 428.995L220.76 428.043H221.712H222.664V427.09L224.567 426.137L225.519 427.09V428.043H226.471H227.422L229.326 428.995H230.278V429.948V430.901L231.229 431.854L232.181 430.901L233.133 431.854L232.181 433.76V435.666H233.133V436.619H232.181L231.229 437.572L230.278 438.525L231.229 442.336V443.289H232.181H233.133V444.242H232.181L229.326 443.289L228.374 442.336H226.471V441.383H225.519L223.615 442.336V443.289V444.242L224.567 445.195L226.471 446.148H227.422L230.278 445.195H232.181H234.084L235.036 446.148H235.988V445.195H236.94H237.891H238.843H239.795L241.698 447.101V448.054H242.65L243.602 449.007H244.553L248.36 443.289L254.071 439.478V437.572H255.022V436.619L254.071 435.666V434.713L255.022 433.76V432.807L255.974 431.854L257.878 430.901H258.829L257.878 431.854L258.829 432.807V433.76H259.781H263.588L266.443 442.336L265.491 444.242L262.636 449.96L268.346 456.63V457.583L269.298 458.536L270.25 459.489V466.159L274.057 467.112L275.009 466.159L277.864 465.206H278.815V464.254L284.526 468.065L282.622 475.689L283.574 476.642L287.381 475.689L291.188 476.642H294.043H295.946L296.898 475.689L297.85 473.783L300.705 474.736L304.512 475.689L306.415 476.642L309.271 473.783L310.222 472.83L313.078 471.877L314.029 470.924L314.981 469.971V469.018H315.933L319.74 469.971V470.924L320.691 472.83L323.546 474.736L324.498 475.689V476.642V477.594V478.547V479.5V481.406L325.45 485.218H326.402L328.305 486.171L335.919 489.03L336.871 489.982V490.935L337.822 492.841L338.774 491.888L339.726 492.841H340.678H341.629H343.533H344.484H345.436H347.34L348.291 491.888H349.243L350.195 492.841H352.098L353.05 493.794V494.747H354.002L353.05 495.7H352.098V496.653H353.05V497.606V498.559V499.512H354.002V498.559H354.953H355.905V497.606H356.857H357.809V496.653L359.712 495.7V496.653H360.664V498.559L363.519 500.465L362.567 501.418L361.615 502.37V503.323L359.712 504.276H358.76V505.229L357.809 506.182L356.857 507.135L357.809 508.088H359.712L360.664 509.041V509.994L359.712 510.947V511.9H358.76L357.809 510.947H356.857H355.905V511.9V512.853L356.857 513.805V514.758H355.905V515.711L356.857 517.617H355.905V518.57H354.953L353.05 517.617L352.098 520.476V522.382L351.146 523.335V524.288H352.098L353.05 525.241V526.193L352.098 528.099V529.052V530.005V530.958L351.146 531.911L350.195 532.864L349.243 534.77H348.291L347.34 536.676L346.388 538.581V539.534H347.34H348.291L349.243 538.581H350.195L351.146 539.534V540.487L349.243 541.44V542.393V543.346L347.34 545.252V546.205L346.388 547.158L347.34 548.111L346.388 549.064H345.436H344.484H343.533L342.581 550.017V550.969V551.922L340.678 553.828V554.781H339.726L338.774 555.734H337.822V556.687H336.871H335.919L336.871 557.64L335.919 558.593V559.546V560.499V561.452V562.405V563.357V564.31H336.871V565.263V566.216H337.822V567.169L338.774 568.122H339.726H340.678V569.075H342.581L343.533 570.028V570.981L342.581 571.934L343.533 574.793V576.698L341.629 579.557V580.51H342.581H343.533L344.484 579.557H345.436L346.388 578.604V579.557L347.34 580.51H348.291L349.243 579.557V578.604L350.195 577.651L352.098 574.793H354.002V576.698L354.953 578.604L355.905 577.651L357.809 580.51H358.76L359.712 579.557L360.664 580.51L361.615 579.557L362.567 578.604V579.557V581.463L363.519 580.51L364.471 579.557V578.604H365.422H366.374L368.278 577.651V578.604V580.51L370.181 581.463V580.51H371.133H372.084V581.463L373.988 580.51L374.94 579.557H375.891H376.843H377.795H378.746L379.698 580.51L381.602 581.463H382.553V580.51H384.457H385.409V578.604L386.36 576.698L383.505 574.793H382.553L381.602 573.84V572.887H380.65L379.698 571.934V570.981V570.028L380.65 569.075L381.602 570.028L383.505 570.981L384.457 569.075L385.409 568.122V567.169H386.36L385.409 566.216V565.263L384.457 564.31V563.357V562.405L385.409 561.452H387.312L388.264 560.499H389.215V559.546H390.167V560.499L392.071 561.452V559.546V558.593H393.022V557.64L393.974 556.687V554.781L393.022 553.828V554.781L392.071 552.875V551.922V550.969L393.022 550.017V549.064L393.974 548.111V547.158L393.022 546.205H392.071H391.119H389.215V545.252V544.299L388.264 545.252L387.312 544.299L384.457 543.346V541.44V540.487L382.553 539.534L383.505 538.581H384.457V537.629L385.409 533.817H384.457H380.65H379.698L378.746 534.77H377.795L376.843 533.817V532.864H375.891L373.988 533.817H373.036L372.084 534.77H371.133L370.181 535.723H369.229L368.278 534.77L370.181 532.864V530.005H369.229L368.278 529.052V528.099H367.326V527.146H366.374V526.193V525.241V524.288V522.382L365.422 521.429L364.471 519.523H365.422H367.326H368.278V518.57L370.181 517.617L371.133 516.664V517.617L373.036 520.476L373.988 522.382V523.335L374.94 522.382H375.891V523.335H376.843V522.382L377.795 521.429V520.476L378.746 519.523V518.57V517.617L379.698 516.664V515.711L380.65 514.758V513.805L381.602 512.853L383.505 511.9L384.457 510.947L386.36 509.994H387.312L388.264 509.041L389.215 508.088V507.135L390.167 506.182H391.119H392.071L393.022 505.229V504.276V503.323L393.974 502.37H394.926H395.878L396.829 501.418H397.781V500.465H399.684L400.636 499.512H401.588H403.491L402.54 498.559H403.491L404.443 497.606L400.636 494.747H399.684L405.395 491.888L403.491 489.982L397.781 492.841L396.829 493.794L395.878 494.747H394.926H393.974H392.071V493.794L391.119 492.841V486.171L390.167 485.218L391.119 484.265H393.022L391.119 480.453L393.022 479.5L393.974 477.594L397.781 473.783V472.83L398.733 471.877L400.636 469.018L401.588 467.112V466.159L402.54 465.206V464.254V463.301L403.491 462.348V461.395H404.443H405.395H406.346V460.442L411.105 455.677L410.153 452.818L409.202 450.913V449.96L410.153 449.007L411.105 448.054H408.25V447.101L409.202 441.383V438.525H410.153L409.202 436.619L410.153 435.666V432.807L409.202 430.901L408.25 428.995L409.202 427.09L408.25 426.137V424.231V423.278L407.298 421.372L405.395 420.419L403.491 419.466L401.588 413.749L399.684 412.796L398.733 411.843L397.781 410.89L396.829 408.984V408.031H395.878L393.022 406.125V404.219V402.314H393.974V401.361L394.926 398.502V397.549L395.878 396.596V395.643L393.974 394.69H393.022H392.071V393.737H391.119H390.167L385.409 391.831L384.457 390.879V389.926V388.973L385.409 388.02L384.457 387.067V386.114V384.208H385.409H386.36V383.255H385.409V382.302V381.349H384.457L381.602 379.443L380.65 378.491H378.746H377.795H374.94V377.538V376.585L375.891 375.632L377.795 374.679H378.746L379.698 372.773V371.82H378.746V369.914H379.698L378.746 368.961H377.795V368.008V367.055V366.103L375.891 364.197H374.94H373.988V363.244L374.94 362.291H375.891L373.988 361.338L375.891 358.479H376.843V359.432H378.746H379.698L381.602 358.479H382.553L383.505 357.526L384.457 356.573L385.409 357.526L386.36 356.573L387.312 355.62H388.264L387.312 354.667L388.264 353.715L389.215 352.762L390.167 353.715L392.071 355.62H393.022H393.974L397.781 356.573H400.636L401.588 357.526V355.62V354.667V353.715V352.762L399.684 351.809H398.733V350.856V349.903L397.781 347.997L396.829 347.044H394.926H393.974L394.926 346.091V345.138H395.878L396.829 346.091L400.636 344.185L401.588 345.138H402.54L403.491 346.091L405.395 347.044V347.997H403.491L404.443 348.95L405.395 349.903L406.346 350.856L408.25 351.809H410.153V350.856H412.057L413.009 351.809H413.96V350.856H414.912V349.903L415.864 350.856L418.719 351.809V352.762L419.671 354.667V355.62L421.574 354.667H423.478H424.429L425.381 355.62H426.333L427.284 356.573V357.526V358.479H428.236H429.188H430.14L432.043 359.432H432.995L432.043 357.526L432.995 358.479L432.043 356.573V355.62L432.995 354.667H432.043V353.715H431.091L430.14 352.762V351.809V349.903L432.043 350.856H432.995L433.946 351.809H434.898V352.762H435.85H436.802L437.753 351.809L438.705 353.715H439.657L440.609 354.667L441.56 353.715L444.415 352.762V351.809V350.856H445.367L446.319 349.903H447.271H448.222L449.174 348.95V347.997H450.126L451.078 347.044V347.997H452.029L452.981 347.044L454.884 346.091L459.643 344.185H460.595H461.546V343.232L463.45 342.28L465.353 341.327H466.305L467.257 340.374V341.327H468.209H469.16V342.28L470.112 343.232L472.015 345.138L473.919 344.185V343.232H474.871L475.822 342.28H476.774V341.327L477.726 340.374H478.678L480.581 337.515L481.533 336.562V335.609V334.656V331.797L483.436 330.844H485.34L486.291 328.939L485.34 327.986V326.08V325.127L482.484 324.174H483.436L477.726 320.362L476.774 319.409L475.822 317.504L471.064 315.598H467.257V314.645V312.739V311.786L468.209 310.833V309.88V308.927H471.064L472.967 307.974L474.871 307.021V306.068V305.116V304.163H475.822V303.21L476.774 299.398H484.388H487.243L488.195 298.445L489.146 297.492L490.098 296.539V295.586L491.05 290.822H492.002V289.869L494.857 287.963V287.01L497.712 286.057H500.567L501.519 284.151V283.198L502.471 282.245V281.292L503.422 280.34V279.387V278.434V277.481L504.374 276.528L506.278 275.575L507.229 276.528H508.181H509.133H511.036L513.891 274.622V273.669L511.036 269.857L510.084 268.904V266.999H509.133V266.046V265.093V264.14V263.187L510.084 260.328V259.375H511.036V258.422H511.988V257.469V256.517L512.94 254.611V253.658L514.843 250.799V246.034L512.94 242.223V241.27V240.317H511.988H511.036H510.084L509.133 238.411L508.181 236.505L506.278 234.599V233.646L505.326 231.741V229.835L504.374 227.929V226.976H503.422H502.471L501.519 228.882L500.567 231.741L498.664 232.693V233.646H497.712L492.953 232.693L491.05 231.741L488.195 230.788H486.291L487.243 228.882H485.34H482.484H476.774H474.871L473.919 227.929L470.112 226.023L469.16 225.07L467.257 224.117L468.209 216.494L466.305 213.635L464.402 209.823H465.353L467.257 210.776H469.16L470.112 207.917H472.015L473.919 208.87L474.871 207.917L469.16 203.153V201.247L470.112 197.435V196.482L469.16 195.529L468.209 194.577L469.16 193.624H470.112L471.064 192.671L472.015 190.765H473.919H474.871L475.822 189.812H476.774H477.726H478.678H479.629H480.581L481.533 190.765L482.484 189.812H483.436H485.34H487.243L488.195 188.859L489.146 189.812H491.05H492.002L493.905 190.765V191.718H494.857H496.76H497.712H498.664H500.567L501.519 190.765H502.471L503.422 191.718L504.374 190.765V191.718H505.326L508.181 192.671H509.133L511.036 190.765V189.812V187.906V184.094L511.988 174.565V162.177V156.46L514.843 150.742L513.891 148.836V147.883L515.795 145.025L521.505 135.495L525.312 128.825L527.215 121.202L528.167 116.437L529.119 115.484V114.531L527.215 105.955V101.19V100.237V93.5668L524.36 91.661V89.7551V88.8022V87.8493L525.312 86.8964V84.9905V84.0376L526.264 81.1788H527.215L528.167 80.2259H530.071L528.167 79.273L527.215 78.3201L528.167 77.3671V76.4142V72.6025L527.215 69.7438V68.7908H526.264L523.409 67.8379H522.457V66.885H521.505H520.553H519.602H518.65V65.9321H517.698H516.746H514.843L513.891 64.9792H512.94L511.988 64.0262L511.036 63.0733V62.1204V60.2145L511.988 59.2616L511.036 57.3558V56.4029H511.988L512.94 54.497V53.5441L511.036 54.497L510.084 55.4499H507.229H506.278H505.326H504.374L502.471 54.497V53.5441H501.519H500.567L498.664 52.5912L496.76 51.6382V52.5912L494.857 51.6382L492.953 50.6853H492.002V49.7324H492.953L492.002 48.7795L490.098 46.8736H489.146L488.195 45.9207V44.9678V43.0619V41.1561L487.243 40.2032V39.2503V38.2973V36.3915L486.291 34.4856H485.34V31.6269L486.291 28.7681V27.8152L483.436 24.9564L481.533 24.0035L480.581 25.9093L481.533 26.8623H480.581H479.629H478.678V25.9093L479.629 26.8623V25.9093L480.581 24.0035H479.629L477.726 23.0506L475.822 24.9564L474.871 24.0035L472.967 23.0506H470.112L469.16 22.0977ZM492.953 49.7324L493.905 50.6853V49.7324H492.953ZM527.215 68.7908V66.885L526.264 67.8379L527.215 68.7908ZM243.602 449.007H242.65H241.698L242.65 449.96L243.602 449.007ZM78.9534 407.078H79.9051V408.031V408.984H80.8568V410.89H81.8086L82.7603 411.843H83.712L84.6637 412.796L85.6155 413.749L86.5672 412.796V413.749H85.6155L87.5189 415.655V416.607V417.56L86.5672 418.513L87.5189 419.466V420.419L88.4706 418.513H89.4224L90.3741 416.607L91.3258 415.655L95.1327 414.702H97.0361L97.9879 415.655H99.8913H100.843H101.795V414.702H102.746H104.65L105.602 415.655L106.553 416.607H108.457L109.409 414.702H111.312L112.264 413.749V412.796V411.843V410.89H111.312V409.937L110.36 408.984L109.409 407.078V406.125L108.457 405.172H107.505H106.553V404.219H105.602H104.65L102.746 405.172L101.795 404.219H99.8913L97.9879 405.172L97.0361 406.125L95.1327 405.172L93.2292 406.125H92.2775L91.3258 407.078H90.3741L89.4224 406.125H88.4706L87.5189 405.172H86.5672H85.6155V404.219H84.6637V405.172L81.8086 406.125L78.9534 407.078ZM134.153 356.573L133.202 357.526H134.153V356.573ZM230.278 127.872V126.919H229.326L230.278 127.872ZM251.215 249.846V250.799H252.167L251.215 249.846ZM333.064 251.752L331.16 250.799L332.112 251.752H333.064ZM281.096 239.364L282.622 238.411L280.719 239.364H281.096ZM300.705 101.19L297.85 104.049H296.898H295.946L296.898 105.002H297.85L298.802 104.049L300.705 101.19ZM307.367 82.1318V81.1788L306.415 82.1318H307.367ZM405.395 46.8736V47.8266L406.346 48.7795L405.395 46.8736ZM399.684 52.5912H400.636V53.5441L399.684 52.5912ZM397.781 53.5441H398.733L397.781 54.497V53.5441ZM304.512 110.719H305.464L304.512 111.672V110.719ZM265.115 183.896L265.194 183.936L264.599 184.214L265.115 183.896ZM262.339 185.841L262.14 186.02V186L262.339 185.841ZM262.14 186.358L262.22 186.953L260.792 187.172L260.772 187.152L258.829 187.906L260.733 187.152H260.772L262.14 186.933V186.358ZM345.436 201.247V202.2H346.388V203.153L347.34 204.106V203.153H348.291L349.243 202.2L348.291 201.247H347.34H346.388H345.436ZM267.395 228.882V229.835V230.788L266.443 232.693H267.395L268.346 231.741H269.298L270.25 230.788H271.202V229.835L269.298 230.788L268.346 229.835L267.395 228.882ZM182.691 362.291H183.643L182.691 363.244V362.291Z" fill="url(#paint0_linear)" stroke="url(#paint1_linear)" stroke-width="1.05" stroke-miterlimit="10" stroke-linejoin="bevel"/>
<path fill-rule="evenodd" clip-rule="evenodd" d="M385.417 25.9095V26.8624L384.465 27.8153H383.513V26.8624V25.9095L384.465 24.9565H385.417V25.9095Z" fill="url(#paint2_linear)" stroke="url(#paint3_linear)" stroke-width="1.05" stroke-miterlimit="10" stroke-linejoin="bevel"/>
<path fill-rule="evenodd" clip-rule="evenodd" d="M345.445 24.9564H348.3H351.155L363.527 24.0035L369.238 23.0506H372.093L373.996 24.0035H374.948V24.9564V25.9093H373.996H371.141H369.238H366.383L364.479 26.8623L362.576 27.8152H361.624L357.817 28.7681L354.01 29.721H352.107H351.155H350.203L347.348 28.7681H346.396H344.493H343.541V29.721L342.589 30.674L341.638 31.6269H339.734L338.783 32.5798H337.831H336.879H337.831L336.879 33.5327L335.927 32.5798H334.024L333.072 31.6269L331.169 30.674L330.217 28.7681V27.8152L331.169 26.8623L332.12 24.9564L333.072 24.0035L334.976 22.0977H335.927H336.879L337.831 23.0506H338.783L339.734 24.0035H338.783L337.831 23.0506H336.879H334.976L334.024 24.0035H335.927H336.879L340.686 24.9564H345.445Z" fill="url(#paint4_linear)" stroke="url(#paint5_linear)" stroke-width="1.05" stroke-miterlimit="10" stroke-linejoin="bevel"/>
<path fill-rule="evenodd" clip-rule="evenodd" d="M420.631 14.4744V16.3803H419.679H418.727H417.776H416.824L414.92 17.3332L412.065 18.2861L411.114 19.239V20.1919L409.21 21.1449H408.258H406.355H405.403L402.548 22.0978H401.596H398.741H397.789L396.838 24.0036V24.9565H395.886V25.9095H394.934H393.982V26.8624L393.031 24.9565V24.0036H393.982L394.934 23.0507L393.982 22.0978V21.1449V19.239L394.934 18.2861L396.838 17.3332V16.3803H395.886H394.934H393.982H393.031H393.982L394.934 15.4273L396.838 16.3803H399.693L409.21 15.4273H412.065L417.776 14.4744L419.679 13.5215L420.631 14.4744Z" fill="url(#paint6_linear)" stroke="url(#paint7_linear)" stroke-width="1.05" stroke-miterlimit="10" stroke-linejoin="bevel"/>
<path fill-rule="evenodd" clip-rule="evenodd" d="M285.486 68.7908L284.534 67.8379H285.486H287.389H288.341H287.389V68.7908H286.438H285.486V67.8379V68.7908Z" fill="url(#paint8_linear)"/>
<path d="M285.486 68.7908L284.534 67.8379H285.486H287.389H288.341H287.389V68.7908H286.438H285.486ZM285.486 68.7908V67.8379V68.7908Z" stroke="url(#paint9_linear)" stroke-width="1.05" stroke-miterlimit="10" stroke-linejoin="bevel"/>
<path fill-rule="evenodd" clip-rule="evenodd" d="M308.327 36.3915H304.52L302.617 37.3444H301.665L300.713 38.2974L298.81 40.2032L297.858 41.1561H296.907H295.955V42.1091H295.003L294.051 41.1561V42.1091H293.1L292.148 43.062H291.196V44.0149L290.244 43.062H289.293H288.341H287.389L286.438 44.0149L285.486 44.9678L284.534 44.0149L283.582 44.9678H282.631L281.679 45.9207V46.8737H280.727L278.824 47.8266H279.776L278.824 48.7795H277.872H275.969L275.017 46.8737H274.065V45.9207L275.017 44.9678L276.92 42.1091L278.824 39.2503L280.727 38.2974L282.631 37.3444L286.438 36.3915L292.148 35.4386H294.051L299.762 33.5328L304.52 31.6269L314.989 27.8152H317.844L320.7 26.8623L321.651 27.8152H322.603L323.555 28.7681V30.674V31.6269V30.674V29.7211L322.603 28.7681V29.7211L321.651 30.674L320.7 31.6269H318.796H317.844L315.941 32.5798L314.989 31.6269V32.5798H315.941L314.989 33.5328H314.038H313.086V32.5798H312.134L313.086 33.5328V34.4857H312.134H311.182L310.231 33.5328L311.182 34.4857L312.134 35.4386H313.086H314.038L313.086 36.3915H311.182H309.279H308.327Z" fill="url(#paint10_linear)" stroke="url(#paint11_linear)" stroke-width="1.05" stroke-miterlimit="10" stroke-linejoin="bevel"/>
<path fill-rule="evenodd" clip-rule="evenodd" d="M275.017 58.3086L274.065 59.2615L273.114 60.2144H272.162H271.21H270.258V61.1674H269.307V60.2144H270.258H269.307L270.258 59.2615L271.21 58.3086H273.114H275.017Z" fill="url(#paint12_linear)" stroke="url(#paint13_linear)" stroke-width="1.05" stroke-miterlimit="10" stroke-linejoin="bevel"/>
<path fill-rule="evenodd" clip-rule="evenodd" d="M262.645 59.2616V60.2145L261.693 61.1674L259.789 62.1204L254.079 64.0262L252.176 64.9791V65.9321V67.8379H253.127V66.885H254.079L253.127 67.8379L252.176 69.7438L249.32 71.6496L248.369 72.6025H247.417V73.5554L246.465 74.5084L244.562 75.4613H243.61H241.707H238.851L237.9 76.4142V77.3671H238.851H237.9H236.948V75.4613V74.5084V73.5554L242.658 70.6967L245.513 67.8379L247.417 66.885L249.32 64.9791L250.272 64.0262L254.079 61.1674L255.982 60.2145L256.934 59.2616L259.789 58.3087L261.693 57.3558L263.596 56.4028H264.548L267.403 57.3558V58.3087L266.451 59.2616H265.5H264.548H262.645Z" fill="url(#paint14_linear)" stroke="url(#paint15_linear)" stroke-width="1.05" stroke-miterlimit="10" stroke-linejoin="bevel"/>
<path fill-rule="evenodd" clip-rule="evenodd" d="M216.962 125.013L215.058 125.966L214.107 126.919H213.155V127.872H212.203L211.251 126.919V125.966V125.013V124.06H212.203H213.155H214.107L216.962 123.107H218.865V124.06L216.962 125.013Z" fill="url(#paint16_linear)" stroke="url(#paint17_linear)" stroke-width="1.05" stroke-miterlimit="10" stroke-linejoin="bevel"/>
<path fill-rule="evenodd" clip-rule="evenodd" d="M237.9 110.72L235.996 112.625L235.045 113.578H234.093H233.141H232.189L229.334 117.39V118.343V119.296H228.382H227.431L226.479 118.343L224.576 117.39H223.624L224.576 118.343L225.527 119.296L226.479 120.249H227.431H225.527V121.202H223.624H222.672H223.624L222.672 122.155H221.72L220.769 123.108H219.817V122.155V120.249L218.865 116.437V114.531V113.578L219.817 110.72V109.767L220.769 106.908L221.72 104.049L222.672 101.19L223.624 100.237L225.527 97.3786L227.431 93.5669L230.286 90.7081V91.6611V92.614L231.238 91.6611L232.189 90.7081L233.141 89.7552H234.093V90.7081V89.7552H233.141V88.8023L232.189 89.7552L230.286 90.7081L233.141 84.9906L234.093 84.0377L235.996 83.0848V82.1318H236.948H237.9L238.851 83.0848L239.803 84.0377V84.9906V85.9435H240.755H239.803V86.8964L240.755 87.8494L241.707 88.8023L243.61 91.6611V92.614L242.658 93.5669V99.2844V102.143V103.096L241.707 105.002H240.755L239.803 105.955V107.861L237.9 109.767V110.72Z" fill="url(#paint18_linear)" stroke="url(#paint19_linear)" stroke-width="1.05" stroke-miterlimit="10" stroke-linejoin="bevel"/>
<path fill-rule="evenodd" clip-rule="evenodd" d="M275.969 120.249L262.645 131.684L261.693 132.637H260.741V131.684H262.645L275.969 120.249Z" fill="url(#paint20_linear)" stroke="url(#paint21_linear)" stroke-width="1.05" stroke-miterlimit="10" stroke-linejoin="bevel"/>
<path fill-rule="evenodd" clip-rule="evenodd" d="M244.562 143.119L242.658 142.166L239.803 143.119L243.61 141.213L244.562 140.26L246.465 139.307H247.417L249.32 136.448V135.495L251.224 133.59H253.127L254.079 132.637H255.031L255.983 133.59H256.934L257.886 132.637H258.838L259.789 133.59V132.637H260.741V134.543L259.789 133.59V135.495H258.838V137.401L256.934 139.307H255.983L254.079 140.26H253.127L252.176 142.166H251.224H250.272H247.417H246.465V143.119H244.562Z" fill="url(#paint22_linear)" stroke="url(#paint23_linear)" stroke-width="1.05" stroke-miterlimit="10" stroke-linejoin="bevel"/>
<path fill-rule="evenodd" clip-rule="evenodd" d="M127.491 354.667L125.588 355.62H127.491V354.667ZM127.491 355.62L124.636 356.573H123.685H122.733L124.636 355.62L121.781 356.573L116.071 358.479L114.167 359.432H113.216L110.36 360.385H109.409L108.457 362.291V363.244V364.197L109.409 367.055V368.008H110.36V368.961H111.312L113.216 368.008V367.055H112.264V366.103H113.216H114.167H115.119L116.071 365.15H117.022H117.974H118.926L119.878 364.197L120.829 363.244L122.733 364.197H124.636L126.54 365.15V366.103L127.491 367.055L128.443 368.961H129.395V370.867V371.82H128.443V372.773H129.395L128.443 373.726V374.679L129.395 376.585H130.347V377.538L131.298 378.491V379.443L132.25 381.349V383.255H133.202H134.154L135.105 384.208L136.057 383.255V384.208H137.96H139.864H140.816H141.767L142.719 385.161L145.574 386.114L146.526 388.02L147.478 388.973H149.381H150.333V389.926H152.236L153.188 390.879H154.14V391.831V392.784L156.043 393.737L156.995 394.69H159.85H160.802H161.754L163.657 393.737H165.56H166.512L169.367 392.784L171.271 391.831L172.222 390.879L173.174 388.973V388.02H172.222V387.067H173.174H174.126H175.078H176.029L177.933 386.114H176.981V385.161V384.208H176.029L175.078 385.161H173.174H171.271H169.367H168.416H166.512L164.609 382.302H162.705L161.754 381.349H160.802L159.85 380.396V379.443L157.947 378.491V377.538V376.585H156.995L154.14 373.726L151.285 370.867H150.333V369.914H148.429L147.478 368.961H146.526L144.622 367.055L142.719 366.103H141.767L137.96 364.197L137.009 363.244L134.154 362.291V361.338L133.202 360.385H132.25V361.338L131.298 360.385H132.25V359.432V358.479H131.298V359.432H130.347V358.479L128.443 357.526V356.573L127.491 355.62ZM109.409 368.961L108.457 370.867L107.505 371.82L105.602 372.773H106.554L108.457 373.726L109.409 374.679H110.36V373.726L109.409 372.773L108.457 371.82L109.409 368.961Z" fill="url(#paint24_linear)" stroke="url(#paint25_linear)" stroke-width="1.05" stroke-miterlimit="10" stroke-linejoin="bevel"/>
<path fill-rule="evenodd" clip-rule="evenodd" d="M120.838 368.961L121.789 369.914L120.838 368.961H118.934L117.031 369.914L115.127 370.867H114.176V369.914L116.079 368.961V368.008L117.031 367.055L117.982 366.103V367.055H118.934L120.838 368.961Z" fill="url(#paint26_linear)"/>
<path d="M120.838 368.961L121.789 369.914L120.838 368.961ZM120.838 368.961H118.934L117.031 369.914L115.127 370.867H114.176V369.914L116.079 368.961V368.008L117.031 367.055L117.982 366.103V367.055H118.934L120.838 368.961Z" stroke="url(#paint27_linear)" stroke-width="1.05" stroke-miterlimit="10" stroke-linejoin="bevel"/>
<path fill-rule="evenodd" clip-rule="evenodd" d="M164.617 375.632L166.52 376.585L169.375 377.537L171.279 378.49L172.231 379.443H171.279L169.375 380.396H166.52H165.569L164.617 379.443L163.665 378.49H162.713L160.81 376.585H159.858L158.906 375.632L159.858 374.679H161.762L164.617 375.632Z" fill="url(#paint28_linear)" stroke="url(#paint29_linear)" stroke-width="1.05" stroke-miterlimit="10" stroke-linejoin="bevel"/>
<path fill-rule="evenodd" clip-rule="evenodd" d="M60.8707 444.242V445.195H59.9189H58.9672L57.0638 446.148H56.112H55.1603L54.2086 447.101H53.2569H52.3051H51.3534H50.4017H49.45V448.054H48.4983L47.5465 449.007H46.5948H45.6431L44.6914 449.96H43.7396V450.913L44.6914 451.866V453.771V454.724V455.677L45.6431 456.63V458.536L42.7879 461.395L41.8362 462.348L42.7879 463.301L44.6914 465.206H43.7396H42.7879V466.159L43.7396 467.112L44.6914 468.065V469.018L43.7396 469.971L44.6914 470.924H45.6431L46.5948 472.83H47.5465L48.4983 474.736L49.45 473.783L50.4017 474.736V475.689V476.642H51.3534L52.3051 477.594H53.2569H56.112L63.7258 476.642L62.7741 469.971L61.8224 469.018L63.7258 468.065L64.6776 469.018H65.6293V468.065H66.581H67.5327V467.112H68.4845L69.4362 468.065L70.3879 469.018L71.3396 468.065L70.3879 466.159L72.2914 465.206L73.2431 466.159L75.1465 467.112L76.0983 468.065L78.0017 469.018H78.9534V468.065H80.8569L82.7603 469.971H83.712L84.6638 470.924V471.877H87.5189L88.4707 472.83V471.877L92.2776 472.83H93.2293L94.181 474.736H95.1327V473.783L96.0845 474.736L97.0362 475.689H97.9879V476.642L97.0362 477.594V479.5V482.359V484.265L97.9879 485.218H98.9396V484.265L99.8914 485.218H100.843H101.795H102.747H103.698H104.65H105.602H106.553L108.457 483.312H109.409H110.36V485.218H109.409L108.457 486.171L109.409 487.124H110.36H111.312L113.215 486.171H114.167L113.215 484.265L115.119 483.312L116.071 485.218H117.022V484.265H117.974H118.926L119.878 483.312V482.359H121.781L122.733 480.453H123.684L124.636 479.5L126.54 478.547H127.491V479.5H128.443L129.395 478.547V479.5H131.298L132.25 478.547H133.202L134.153 477.594L136.057 475.689L137.96 474.736L139.864 473.783L144.622 469.971L145.574 469.018L155.091 457.583H154.14V456.63H153.188V455.677V454.724L152.236 455.677V454.724V453.771L151.284 452.818H150.333H149.381L150.333 451.866H149.381H148.429V452.818L147.478 453.771V454.724L148.429 455.677H149.381V456.63V457.583L148.429 456.63L147.478 457.583H148.429L147.478 458.536H148.429V459.489L147.478 458.536H145.574L146.526 459.489V460.442L145.574 458.536L144.622 457.583H143.671L144.622 458.536L145.574 459.489H144.622V458.536H143.671V457.583V456.63L142.719 455.677L141.767 454.724H140.815H138.912V455.677H139.864H140.815H141.767L140.815 456.63V457.583L141.767 456.63L142.719 457.583H141.767V458.536V459.489H142.719V460.442H141.767L139.864 456.63H138.912L136.057 454.724V453.771H135.105V454.724L131.298 453.771L130.347 452.818V451.866L129.395 450.913V449.96L128.443 449.007L129.395 448.054H128.443L127.491 447.101V446.148H125.588H124.636L123.684 445.195H121.781L120.829 447.101V448.054H119.878V449.96V450.913V451.866V452.818L118.926 453.771V452.818L117.974 453.771H117.022L114.167 454.724L112.264 455.677L111.312 456.63H110.36V457.583H108.457V458.536L107.505 459.489H106.553H104.65H103.698L102.747 458.536H101.795V459.489L100.843 458.536V459.489V460.442L99.8914 458.536V457.583H98.9396H97.9879V456.63H95.1327V459.489L93.2293 458.536V457.583L94.181 456.63H93.2293H91.3258H90.3741H89.4224H88.4707V455.677L87.5189 454.724L86.5672 453.771H85.6155V452.818L84.6638 451.866H81.8086L79.9051 450.913H78.9534L76.0983 449.96H75.1465V449.007H74.1948L72.2914 448.054H71.3396L70.3879 447.101L69.4362 446.148H68.4845L67.5327 445.195H66.581V444.242H63.7258H62.7741H60.8707ZM147.478 457.583L146.526 456.63L145.574 457.583H147.478ZM146.526 456.63H147.478H148.429H149.381L148.429 455.677H147.478V454.724H146.526V453.771H145.574H144.622V454.724V455.677L145.574 456.63H146.526ZM148.429 453.771L149.381 454.724H148.429V453.771ZM150.333 453.771H151.284L150.333 454.724V453.771ZM143.671 460.442H144.622V461.395H143.671V460.442Z" fill="url(#paint30_linear)" stroke="url(#paint31_linear)" stroke-width="1.05" stroke-miterlimit="10" stroke-linejoin="bevel"/>
<path fill-rule="evenodd" clip-rule="evenodd" d="M275.969 120.248L279.776 116.437L280.727 115.484L291.196 105.955H292.148L295.003 105.002H295.955V104.049V105.002L296.907 105.955L295.955 105.002H295.003L293.1 105.955H291.196L282.631 114.531L281.679 115.484H280.727L279.776 116.437L275.969 120.248Z" fill="url(#paint32_linear)" stroke="url(#paint33_linear)" stroke-width="1.05" stroke-miterlimit="10" stroke-linejoin="bevel"/>
<path fill-rule="evenodd" clip-rule="evenodd" d="M85.6238 416.608L84.6721 415.655V414.702H85.6238L86.5756 415.655V416.608L85.6238 417.56V416.608Z" fill="url(#paint34_linear)" stroke="url(#paint35_linear)" stroke-width="1.05" stroke-miterlimit="10" stroke-linejoin="bevel"/>
<path fill-rule="evenodd" clip-rule="evenodd" d="M90.3825 394.69L89.4308 395.643V397.549V398.502L90.3825 399.455L91.3343 398.502L90.3825 397.549L91.3343 398.502L90.3825 399.455L88.4791 398.502V399.455V400.408L87.5274 399.455L86.5756 400.408H87.5274V401.361H86.5756V400.408L85.6239 401.361V402.314V404.22H84.6722L85.6239 402.314V401.361L84.6722 400.408H83.7205H84.6722L85.6239 398.502L87.5274 397.549V396.596V395.643V396.596H88.4791H89.4308V395.643L90.3825 394.69Z" fill="url(#paint36_linear)" stroke="url(#paint37_linear)" stroke-width="1.05" stroke-miterlimit="10" stroke-linejoin="bevel"/>
<path fill-rule="evenodd" clip-rule="evenodd" d="M290.245 183.142H292.148L298.81 186L299.762 186.953L304.521 191.718L306.424 194.577V195.53L311.183 203.153L313.086 207.918V208.87H312.134L311.183 209.823L309.279 210.776L308.327 214.588L307.376 216.494H308.327L307.376 218.4V216.494L308.327 214.588L309.279 210.776L310.231 209.823L312.134 208.87H313.086V207.918L311.183 203.153L304.521 191.718L299.762 186.953L298.81 186L293.1 183.142L292.148 185.047H291.196H290.245H289.293H290.245L291.196 184.095L292.148 183.142H291.196H290.245Z" fill="url(#paint38_linear)" stroke="url(#paint39_linear)" stroke-width="1.05" stroke-miterlimit="10" stroke-linejoin="bevel"/>
<path fill-rule="evenodd" clip-rule="evenodd" d="M420.631 14.4741H422.534V15.427L420.631 16.38V14.4741Z" fill="url(#paint40_linear)" stroke="url(#paint41_linear)" stroke-width="1.05" stroke-miterlimit="10" stroke-linejoin="bevel"/>
<path fill-rule="evenodd" clip-rule="evenodd" d="M437.762 5.89823V6.85116L438.714 7.80408L439.665 8.757L440.617 9.70992L439.665 8.757H438.714H436.81H435.858V9.70992V10.6628H436.81L435.858 12.5687L434.907 11.6158L433.955 8.757L433.003 7.80408V6.85116L433.955 4.94531H434.907H435.858H436.81L437.762 5.89823Z" fill="url(#paint42_linear)" stroke="url(#paint43_linear)" stroke-width="1.05" stroke-miterlimit="10" stroke-linejoin="bevel"/>
<path fill-rule="evenodd" clip-rule="evenodd" d="M447.279 6.85107H449.183H451.086L452.989 7.804V8.75692V7.804H451.086H449.183H448.231H447.279L446.327 8.75692V7.804L447.279 6.85107Z" fill="url(#paint44_linear)" stroke="url(#paint45_linear)" stroke-width="1.05" stroke-miterlimit="10" stroke-linejoin="bevel"/>
<path fill-rule="evenodd" clip-rule="evenodd" d="M115.127 377.537V376.584H116.079L117.982 377.537H117.031H115.127Z" fill="url(#paint46_linear)" stroke="url(#paint47_linear)" stroke-width="1.05" stroke-miterlimit="10" stroke-linejoin="bevel"/>
<path fill-rule="evenodd" clip-rule="evenodd" d="M150.341 398.502V397.549L149.389 396.596L148.438 395.643V396.596H147.486L145.582 394.69L146.534 393.737H145.582V394.69H143.679V393.737H145.582H148.438H149.389H148.438H147.486V394.69H149.389V395.643L150.341 396.596V397.549V398.502Z" fill="url(#paint48_linear)" stroke="url(#paint49_linear)" stroke-width="1.05" stroke-miterlimit="10" stroke-linejoin="bevel"/>
<path fill-rule="evenodd" clip-rule="evenodd" d="M123.693 373.726H124.645L125.596 372.773V373.726V374.679L126.548 377.538L128.451 379.443L127.5 380.396H126.548V379.443L125.596 378.49V377.538L124.645 375.632L123.693 374.679V373.726Z" fill="url(#paint50_linear)" stroke="url(#paint51_linear)" stroke-width="1.05" stroke-miterlimit="10" stroke-linejoin="bevel"/>
<path fill-rule="evenodd" clip-rule="evenodd" d="M120.838 375.632L119.886 376.585H118.934H117.982V375.632H118.934H119.886H121.789H120.838Z" fill="url(#paint52_linear)" stroke="url(#paint53_linear)" stroke-width="1.05" stroke-miterlimit="10" stroke-linejoin="bevel"/>
<path fill-rule="evenodd" clip-rule="evenodd" d="M117.982 398.502L117.031 399.455H116.079H115.127L113.224 398.502H112.272L114.175 397.549V396.596V397.549L112.272 398.502H111.32L112.272 396.596L111.32 395.643V393.737H110.369V392.784V391.831L109.417 389.926L107.513 388.973L106.562 389.926V388.973L103.707 388.02V387.067V386.114L102.755 385.161H100.851H99.8996L98.9479 386.114V387.067H99.8996L100.851 386.114L101.803 387.067L100.851 386.114L99.8996 387.067H97.9962L97.0445 388.973L95.141 389.926H94.1893H93.2376L91.3341 390.878L90.3824 391.831V393.737H91.3341V394.69H90.3824L89.4307 393.737H90.3824V391.831L89.4307 390.878H88.479H87.5272V389.926L86.5755 388.973L85.6238 387.067V385.161V383.255V382.302L86.5755 380.396L88.479 378.49L90.3824 377.538H91.3341H92.2858L96.0928 376.585L97.0445 375.632H98.9479H100.851L103.707 376.585V375.632V374.679L104.658 373.726V372.773H105.61H106.562L105.61 373.726H106.562L105.61 374.679V373.726H104.658V374.679L103.707 376.585H104.658H105.61H106.562H107.513H110.369L112.272 375.632L113.224 376.585L114.175 377.538V378.49H115.127H116.079H117.031L118.934 377.538L119.886 378.49H122.741V379.443V378.49L123.693 379.443V381.349L124.644 382.302L126.548 384.208L127.5 386.114V388.02H128.451H130.355H131.307L133.21 388.973L136.065 390.878H137.017V391.831H137.969L139.872 389.926H140.824H141.775H144.631L145.582 388.973H146.534V390.878V391.831H147.486L146.534 392.784H145.582L146.534 391.831L145.582 390.878V389.926H144.631V390.878L143.679 389.926L140.824 390.878H139.872L138.92 391.831H137.969V392.784L138.92 393.737V394.69L137.969 395.643H138.92V394.69L137.969 395.643V396.596H137.017L136.065 397.549L135.113 399.455H134.162L133.21 400.408L132.258 399.455L130.355 400.408L129.403 401.361H127.5V402.314H124.644H123.693H121.789H120.838L118.934 400.408L117.982 398.502Z" fill="url(#paint54_linear)" stroke="url(#paint55_linear)" stroke-width="1.05" stroke-miterlimit="10" stroke-linejoin="bevel"/>
<path fill-rule="evenodd" clip-rule="evenodd" d="M108.465 417.56V416.607H107.513H108.465V417.56Z" fill="url(#paint56_linear)" stroke="url(#paint57_linear)" stroke-width="1.05" stroke-miterlimit="10" stroke-linejoin="bevel"/>
<path fill-rule="evenodd" clip-rule="evenodd" d="M177.941 386.114L176.989 387.067H177.941H176.989V388.02L176.038 387.067L177.941 386.114Z" fill="url(#paint58_linear)" stroke="url(#paint59_linear)" stroke-width="1.05" stroke-miterlimit="10" stroke-linejoin="bevel"/>
</g>
<path d="M244.143 141.857C244.143 145.857 239 149.286 239 149.286C239 149.286 233.857 145.857 233.857 141.857C233.857 140.493 234.399 139.185 235.363 138.221C236.328 137.256 237.636 136.714 239 136.714C240.364 136.714 241.672 137.256 242.637 138.221C243.601 139.185 244.143 140.493 244.143 141.857Z" stroke="#13BE37" stroke-width="2" stroke-linecap="round" stroke-linejoin="round"/>
<path d="M239 143.572C239.947 143.572 240.714 142.804 240.714 141.857C240.714 140.911 239.947 140.143 239 140.143C238.053 140.143 237.286 140.911 237.286 141.857C237.286 142.804 238.053 143.572 239 143.572Z" fill="#13BE37"/>
<path d="M376.143 95.8572C376.143 99.8572 371 103.286 371 103.286C371 103.286 365.857 99.8572 365.857 95.8572C365.857 94.4932 366.399 93.1851 367.363 92.2207C368.328 91.2562 369.636 90.7144 371 90.7144C372.364 90.7144 373.672 91.2562 374.637 92.2207C375.601 93.1851 376.143 94.4932 376.143 95.8572Z" stroke="#13BE37" stroke-width="2" stroke-linecap="round" stroke-linejoin="round"/>
<path d="M371 97.5716C371.947 97.5716 372.714 96.8041 372.714 95.8574C372.714 94.9106 371.947 94.1431 371 94.1431C370.053 94.1431 369.286 94.9106 369.286 95.8574C369.286 96.8041 370.053 97.5716 371 97.5716Z" fill="#13BE37"/>
<path d="M234.143 216.857C234.143 220.857 229 224.286 229 224.286C229 224.286 223.857 220.857 223.857 216.857C223.857 215.493 224.399 214.185 225.363 213.221C226.328 212.256 227.636 211.714 229 211.714C230.364 211.714 231.672 212.256 232.637 213.221C233.601 214.185 234.143 215.493 234.143 216.857Z" stroke="#13BE37" stroke-width="2" stroke-linecap="round" stroke-linejoin="round"/>
<path d="M229 218.572C229.947 218.572 230.714 217.804 230.714 216.857C230.714 215.911 229.947 215.143 229 215.143C228.053 215.143 227.286 215.911 227.286 216.857C227.286 217.804 228.053 218.572 229 218.572Z" fill="#13BE37"/>
<path d="M430.143 305.857C430.143 309.857 425 313.286 425 313.286C425 313.286 419.857 309.857 419.857 305.857C419.857 304.493 420.399 303.185 421.363 302.221C422.328 301.256 423.636 300.714 425 300.714C426.364 300.714 427.672 301.256 428.637 302.221C429.601 303.185 430.143 304.493 430.143 305.857Z" stroke="#13BE37" stroke-width="2" stroke-linecap="round" stroke-linejoin="round"/>
<path d="M425 307.572C425.947 307.572 426.714 306.804 426.714 305.857C426.714 304.911 425.947 304.143 425 304.143C424.053 304.143 423.286 304.911 423.286 305.857C423.286 306.804 424.053 307.572 425 307.572Z" fill="#13BE37"/>
<path d="M208.143 322.857C208.143 326.857 203 330.286 203 330.286C203 330.286 197.857 326.857 197.857 322.857C197.857 321.493 198.399 320.185 199.363 319.221C200.328 318.256 201.636 317.714 203 317.714C204.364 317.714 205.672 318.256 206.637 319.221C207.601 320.185 208.143 321.493 208.143 322.857Z" stroke="#13BE37" stroke-width="2" stroke-linecap="round" stroke-linejoin="round"/>
<path d="M203 324.572C203.947 324.572 204.714 323.804 204.714 322.857C204.714 321.911 203.947 321.143 203 321.143C202.053 321.143 201.286 321.911 201.286 322.857C201.286 323.804 202.053 324.572 203 324.572Z" fill="#13BE37"/>
<path d="M398.143 167.857C398.143 171.857 393 175.286 393 175.286C393 175.286 387.857 171.857 387.857 167.857C387.857 166.493 388.399 165.185 389.363 164.221C390.328 163.256 391.636 162.714 393 162.714C394.364 162.714 395.672 163.256 396.637 164.221C397.601 165.185 398.143 166.493 398.143 167.857Z" stroke="#13BE37" stroke-width="2" stroke-linecap="round" stroke-linejoin="round"/>
<path d="M393 169.572C393.947 169.572 394.714 168.804 394.714 167.857C394.714 166.911 393.947 166.143 393 166.143C392.053 166.143 391.286 166.911 391.286 167.857C391.286 168.804 392.053 169.572 393 169.572Z" fill="#13BE37"/>
<path d="M451.143 54.8572C451.143 58.8572 446 62.2858 446 62.2858C446 62.2858 440.857 58.8572 440.857 54.8572C440.857 53.4932 441.399 52.1851 442.363 51.2207C443.328 50.2562 444.636 49.7144 446 49.7144C447.364 49.7144 448.672 50.2562 449.637 51.2207C450.601 52.1851 451.143 53.4932 451.143 54.8572Z" stroke="#13BE37" stroke-width="2" stroke-linecap="round" stroke-linejoin="round"/>
<path d="M446 56.5716C446.947 56.5716 447.714 55.8041 447.714 54.8574C447.714 53.9106 446.947 53.1431 446 53.1431C445.053 53.1431 444.286 53.9106 444.286 54.8574C444.286 55.8041 445.053 56.5716 446 56.5716Z" fill="#13BE37"/>
<path d="M321.143 276.857C321.143 280.857 316 284.286 316 284.286C316 284.286 310.857 280.857 310.857 276.857C310.857 275.493 311.399 274.185 312.363 273.221C313.328 272.256 314.636 271.714 316 271.714C317.364 271.714 318.672 272.256 319.637 273.221C320.601 274.185 321.143 275.493 321.143 276.857Z" stroke="#13BE37" stroke-width="2" stroke-linecap="round" stroke-linejoin="round"/>
<path d="M316 278.572C316.947 278.572 317.714 277.804 317.714 276.857C317.714 275.911 316.947 275.143 316 275.143C315.053 275.143 314.286 275.911 314.286 276.857C314.286 277.804 315.053 278.572 316 278.572Z" fill="#13BE37"/>
<defs>
<linearGradient id="paint0_linear" x1="291.664" y1="22.0977" x2="291.664" y2="581.463" gradientUnits="userSpaceOnUse">
<stop stop-color="#24D321"/>
<stop offset="1" stop-color="#56BFFC"/>
</linearGradient>
<linearGradient id="paint1_linear" x1="291.664" y1="22.0977" x2="291.664" y2="581.463" gradientUnits="userSpaceOnUse">
<stop stop-color="#24D321"/>
<stop offset="1" stop-color="#56BFFC"/>
</linearGradient>
<linearGradient id="paint2_linear" x1="384.465" y1="24.9565" x2="384.465" y2="27.8153" gradientUnits="userSpaceOnUse">
<stop stop-color="#24D321"/>
<stop offset="1" stop-color="#56BFFC"/>
</linearGradient>
<linearGradient id="paint3_linear" x1="384.465" y1="24.9565" x2="384.465" y2="27.8153" gradientUnits="userSpaceOnUse">
<stop stop-color="#24D321"/>
<stop offset="1" stop-color="#56BFFC"/>
</linearGradient>
<linearGradient id="paint4_linear" x1="352.583" y1="22.0977" x2="352.583" y2="33.5327" gradientUnits="userSpaceOnUse">
<stop stop-color="#24D321"/>
<stop offset="1" stop-color="#56BFFC"/>
</linearGradient>
<linearGradient id="paint5_linear" x1="352.583" y1="22.0977" x2="352.583" y2="33.5327" gradientUnits="userSpaceOnUse">
<stop stop-color="#24D321"/>
<stop offset="1" stop-color="#56BFFC"/>
</linearGradient>
<linearGradient id="paint6_linear" x1="406.831" y1="13.5215" x2="406.831" y2="26.8624" gradientUnits="userSpaceOnUse">
<stop stop-color="#24D321"/>
<stop offset="1" stop-color="#56BFFC"/>
</linearGradient>
<linearGradient id="paint7_linear" x1="406.831" y1="13.5215" x2="406.831" y2="26.8624" gradientUnits="userSpaceOnUse">
<stop stop-color="#24D321"/>
<stop offset="1" stop-color="#56BFFC"/>
</linearGradient>
<linearGradient id="paint8_linear" x1="286.438" y1="67.8379" x2="286.438" y2="68.7908" gradientUnits="userSpaceOnUse">
<stop stop-color="#24D321"/>
<stop offset="1" stop-color="#56BFFC"/>
</linearGradient>
<linearGradient id="paint9_linear" x1="286.438" y1="67.8379" x2="286.438" y2="68.7908" gradientUnits="userSpaceOnUse">
<stop stop-color="#24D321"/>
<stop offset="1" stop-color="#56BFFC"/>
</linearGradient>
<linearGradient id="paint10_linear" x1="298.81" y1="26.8623" x2="298.81" y2="48.7795" gradientUnits="userSpaceOnUse">
<stop stop-color="#24D321"/>
<stop offset="1" stop-color="#56BFFC"/>
</linearGradient>
<linearGradient id="paint11_linear" x1="298.81" y1="26.8623" x2="298.81" y2="48.7795" gradientUnits="userSpaceOnUse">
<stop stop-color="#24D321"/>
<stop offset="1" stop-color="#56BFFC"/>
</linearGradient>
<linearGradient id="paint12_linear" x1="272.162" y1="58.3086" x2="272.162" y2="61.1674" gradientUnits="userSpaceOnUse">
<stop stop-color="#24D321"/>
<stop offset="1" stop-color="#56BFFC"/>
</linearGradient>
<linearGradient id="paint13_linear" x1="272.162" y1="58.3086" x2="272.162" y2="61.1674" gradientUnits="userSpaceOnUse">
<stop stop-color="#24D321"/>
<stop offset="1" stop-color="#56BFFC"/>
</linearGradient>
<linearGradient id="paint14_linear" x1="252.176" y1="56.4028" x2="252.176" y2="77.3671" gradientUnits="userSpaceOnUse">
<stop stop-color="#24D321"/>
<stop offset="1" stop-color="#56BFFC"/>
</linearGradient>
<linearGradient id="paint15_linear" x1="252.176" y1="56.4028" x2="252.176" y2="77.3671" gradientUnits="userSpaceOnUse">
<stop stop-color="#24D321"/>
<stop offset="1" stop-color="#56BFFC"/>
</linearGradient>
<linearGradient id="paint16_linear" x1="215.058" y1="123.107" x2="215.058" y2="127.872" gradientUnits="userSpaceOnUse">
<stop stop-color="#24D321"/>
<stop offset="1" stop-color="#56BFFC"/>
</linearGradient>
<linearGradient id="paint17_linear" x1="215.058" y1="123.107" x2="215.058" y2="127.872" gradientUnits="userSpaceOnUse">
<stop stop-color="#24D321"/>
<stop offset="1" stop-color="#56BFFC"/>
</linearGradient>
<linearGradient id="paint18_linear" x1="231.238" y1="82.1318" x2="231.238" y2="123.108" gradientUnits="userSpaceOnUse">
<stop stop-color="#24D321"/>
<stop offset="1" stop-color="#56BFFC"/>
</linearGradient>
<linearGradient id="paint19_linear" x1="231.238" y1="82.1318" x2="231.238" y2="123.108" gradientUnits="userSpaceOnUse">
<stop stop-color="#24D321"/>
<stop offset="1" stop-color="#56BFFC"/>
</linearGradient>
<linearGradient id="paint20_linear" x1="268.355" y1="120.249" x2="268.355" y2="132.637" gradientUnits="userSpaceOnUse">
<stop stop-color="#24D321"/>
<stop offset="1" stop-color="#56BFFC"/>
</linearGradient>
<linearGradient id="paint21_linear" x1="268.355" y1="120.249" x2="268.355" y2="132.637" gradientUnits="userSpaceOnUse">
<stop stop-color="#24D321"/>
<stop offset="1" stop-color="#56BFFC"/>
</linearGradient>
<linearGradient id="paint22_linear" x1="250.272" y1="132.637" x2="250.272" y2="143.119" gradientUnits="userSpaceOnUse">
<stop stop-color="#24D321"/>
<stop offset="1" stop-color="#56BFFC"/>
</linearGradient>
<linearGradient id="paint23_linear" x1="250.272" y1="132.637" x2="250.272" y2="143.119" gradientUnits="userSpaceOnUse">
<stop stop-color="#24D321"/>
<stop offset="1" stop-color="#56BFFC"/>
</linearGradient>
<linearGradient id="paint24_linear" x1="141.767" y1="354.667" x2="141.767" y2="394.69" gradientUnits="userSpaceOnUse">
<stop stop-color="#24D321"/>
<stop offset="1" stop-color="#56BFFC"/>
</linearGradient>
<linearGradient id="paint25_linear" x1="141.767" y1="354.667" x2="141.767" y2="394.69" gradientUnits="userSpaceOnUse">
<stop stop-color="#24D321"/>
<stop offset="1" stop-color="#56BFFC"/>
</linearGradient>
<linearGradient id="paint26_linear" x1="117.982" y1="366.103" x2="117.982" y2="370.867" gradientUnits="userSpaceOnUse">
<stop stop-color="#24D321"/>
<stop offset="1" stop-color="#56BFFC"/>
</linearGradient>
<linearGradient id="paint27_linear" x1="117.982" y1="366.103" x2="117.982" y2="370.867" gradientUnits="userSpaceOnUse">
<stop stop-color="#24D321"/>
<stop offset="1" stop-color="#56BFFC"/>
</linearGradient>
<linearGradient id="paint28_linear" x1="165.569" y1="374.679" x2="165.569" y2="380.396" gradientUnits="userSpaceOnUse">
<stop stop-color="#24D321"/>
<stop offset="1" stop-color="#56BFFC"/>
</linearGradient>
<linearGradient id="paint29_linear" x1="165.569" y1="374.679" x2="165.569" y2="380.396" gradientUnits="userSpaceOnUse">
<stop stop-color="#24D321"/>
<stop offset="1" stop-color="#56BFFC"/>
</linearGradient>
<linearGradient id="paint30_linear" x1="98.4638" y1="444.242" x2="98.4638" y2="487.124" gradientUnits="userSpaceOnUse">
<stop stop-color="#24D321"/>
<stop offset="1" stop-color="#56BFFC"/>
</linearGradient>
<linearGradient id="paint31_linear" x1="98.4638" y1="444.242" x2="98.4638" y2="487.124" gradientUnits="userSpaceOnUse">
<stop stop-color="#24D321"/>
<stop offset="1" stop-color="#56BFFC"/>
</linearGradient>
<linearGradient id="paint32_linear" x1="286.438" y1="104.049" x2="286.438" y2="120.248" gradientUnits="userSpaceOnUse">
<stop stop-color="#24D321"/>
<stop offset="1" stop-color="#56BFFC"/>
</linearGradient>
<linearGradient id="paint33_linear" x1="286.438" y1="104.049" x2="286.438" y2="120.248" gradientUnits="userSpaceOnUse">
<stop stop-color="#24D321"/>
<stop offset="1" stop-color="#56BFFC"/>
</linearGradient>
<linearGradient id="paint34_linear" x1="85.6238" y1="414.702" x2="85.6238" y2="417.56" gradientUnits="userSpaceOnUse">
<stop stop-color="#24D321"/>
<stop offset="1" stop-color="#56BFFC"/>
</linearGradient>
<linearGradient id="paint35_linear" x1="85.6238" y1="414.702" x2="85.6238" y2="417.56" gradientUnits="userSpaceOnUse">
<stop stop-color="#24D321"/>
<stop offset="1" stop-color="#56BFFC"/>
</linearGradient>
<linearGradient id="paint36_linear" x1="87.5274" y1="394.69" x2="87.5274" y2="404.22" gradientUnits="userSpaceOnUse">
<stop stop-color="#24D321"/>
<stop offset="1" stop-color="#56BFFC"/>
</linearGradient>
<linearGradient id="paint37_linear" x1="87.5274" y1="394.69" x2="87.5274" y2="404.22" gradientUnits="userSpaceOnUse">
<stop stop-color="#24D321"/>
<stop offset="1" stop-color="#56BFFC"/>
</linearGradient>
<linearGradient id="paint38_linear" x1="301.189" y1="183.142" x2="301.189" y2="218.4" gradientUnits="userSpaceOnUse">
<stop stop-color="#24D321"/>
<stop offset="1" stop-color="#56BFFC"/>
</linearGradient>
<linearGradient id="paint39_linear" x1="301.189" y1="183.142" x2="301.189" y2="218.4" gradientUnits="userSpaceOnUse">
<stop stop-color="#24D321"/>
<stop offset="1" stop-color="#56BFFC"/>
</linearGradient>
<linearGradient id="paint40_linear" x1="421.583" y1="14.4741" x2="421.583" y2="16.38" gradientUnits="userSpaceOnUse">
<stop stop-color="#24D321"/>
<stop offset="1" stop-color="#56BFFC"/>
</linearGradient>
<linearGradient id="paint41_linear" x1="421.583" y1="14.4741" x2="421.583" y2="16.38" gradientUnits="userSpaceOnUse">
<stop stop-color="#24D321"/>
<stop offset="1" stop-color="#56BFFC"/>
</linearGradient>
<linearGradient id="paint42_linear" x1="436.81" y1="4.94531" x2="436.81" y2="12.5687" gradientUnits="userSpaceOnUse">
<stop stop-color="#24D321"/>
<stop offset="1" stop-color="#56BFFC"/>
</linearGradient>
<linearGradient id="paint43_linear" x1="436.81" y1="4.94531" x2="436.81" y2="12.5687" gradientUnits="userSpaceOnUse">
<stop stop-color="#24D321"/>
<stop offset="1" stop-color="#56BFFC"/>
</linearGradient>
<linearGradient id="paint44_linear" x1="449.658" y1="6.85107" x2="449.658" y2="8.75692" gradientUnits="userSpaceOnUse">
<stop stop-color="#24D321"/>
<stop offset="1" stop-color="#56BFFC"/>
</linearGradient>
<linearGradient id="paint45_linear" x1="449.658" y1="6.85107" x2="449.658" y2="8.75692" gradientUnits="userSpaceOnUse">
<stop stop-color="#24D321"/>
<stop offset="1" stop-color="#56BFFC"/>
</linearGradient>
<linearGradient id="paint46_linear" x1="116.555" y1="376.584" x2="116.555" y2="377.537" gradientUnits="userSpaceOnUse">
<stop stop-color="#24D321"/>
<stop offset="1" stop-color="#56BFFC"/>
</linearGradient>
<linearGradient id="paint47_linear" x1="116.555" y1="376.584" x2="116.555" y2="377.537" gradientUnits="userSpaceOnUse">
<stop stop-color="#24D321"/>
<stop offset="1" stop-color="#56BFFC"/>
</linearGradient>
<linearGradient id="paint48_linear" x1="147.01" y1="393.737" x2="147.01" y2="398.502" gradientUnits="userSpaceOnUse">
<stop stop-color="#24D321"/>
<stop offset="1" stop-color="#56BFFC"/>
</linearGradient>
<linearGradient id="paint49_linear" x1="147.01" y1="393.737" x2="147.01" y2="398.502" gradientUnits="userSpaceOnUse">
<stop stop-color="#24D321"/>
<stop offset="1" stop-color="#56BFFC"/>
</linearGradient>
<linearGradient id="paint50_linear" x1="126.072" y1="372.773" x2="126.072" y2="380.396" gradientUnits="userSpaceOnUse">
<stop stop-color="#24D321"/>
<stop offset="1" stop-color="#56BFFC"/>
</linearGradient>
<linearGradient id="paint51_linear" x1="126.072" y1="372.773" x2="126.072" y2="380.396" gradientUnits="userSpaceOnUse">
<stop stop-color="#24D321"/>
<stop offset="1" stop-color="#56BFFC"/>
</linearGradient>
<linearGradient id="paint52_linear" x1="119.886" y1="375.632" x2="119.886" y2="376.585" gradientUnits="userSpaceOnUse">
<stop stop-color="#24D321"/>
<stop offset="1" stop-color="#56BFFC"/>
</linearGradient>
<linearGradient id="paint53_linear" x1="119.886" y1="375.632" x2="119.886" y2="376.585" gradientUnits="userSpaceOnUse">
<stop stop-color="#24D321"/>
<stop offset="1" stop-color="#56BFFC"/>
</linearGradient>
<linearGradient id="paint54_linear" x1="116.555" y1="372.773" x2="116.555" y2="402.314" gradientUnits="userSpaceOnUse">
<stop stop-color="#24D321"/>
<stop offset="1" stop-color="#56BFFC"/>
</linearGradient>
<linearGradient id="paint55_linear" x1="116.555" y1="372.773" x2="116.555" y2="402.314" gradientUnits="userSpaceOnUse">
<stop stop-color="#24D321"/>
<stop offset="1" stop-color="#56BFFC"/>
</linearGradient>
<linearGradient id="paint56_linear" x1="107.989" y1="416.607" x2="107.989" y2="417.56" gradientUnits="userSpaceOnUse">
<stop stop-color="#24D321"/>
<stop offset="1" stop-color="#56BFFC"/>
</linearGradient>
<linearGradient id="paint57_linear" x1="107.989" y1="416.607" x2="107.989" y2="417.56" gradientUnits="userSpaceOnUse">
<stop stop-color="#24D321"/>
<stop offset="1" stop-color="#56BFFC"/>
</linearGradient>
<linearGradient id="paint58_linear" x1="176.989" y1="386.114" x2="176.989" y2="388.02" gradientUnits="userSpaceOnUse">
<stop stop-color="#24D321"/>
<stop offset="1" stop-color="#56BFFC"/>
</linearGradient>
<linearGradient id="paint59_linear" x1="176.989" y1="386.114" x2="176.989" y2="388.02" gradientUnits="userSpaceOnUse">
<stop stop-color="#24D321"/>
<stop offset="1" stop-color="#56BFFC"/>
</linearGradient>
</defs>
</svg>
